<?xml version="1.0" standalone="yes"?>
<svg xmlns="http://www.w3.org/2000/svg" width="600" height="593">
<path style="fill:#ffffff; stroke:none;" d="M0 0L0 269C2.47654 263.098 2.11296 254.455 3 248C4.52768 236.882 7.01934 225.846 9.88426 215C21.0681 172.66 42.4263 132.17 71 99C82.2256 85.9687 93.6575 71.1674 111 66.4892C125.232 62.6502 136.592 67.1671 150 71C152.28 66.4402 152.04 60.7037 154 56C159.156 43.6252 167.3 31.775 179 23C183.04 19.97 186.909 17.0914 190 14L191 15L191 13C196.786 13.3391 202.373 9.98553 208 8.65436C215.867 6.79327 223.944 6.68353 232 7.03937C263.817 8.44489 296.379 37.9119 299 70L301 70C301.869 59.3666 306.657 48.6627 312.721 40C334.374 9.06927 376.166 -2.72266 410 15.3233C421.205 21.2994 430.849 30.5596 437.971 41C443.696 49.3911 448.167 59.8024 449 70C454.217 69.4772 458.893 67.1204 464 66.0146C471.711 64.3451 480.327 64.4692 488 66.3395C502.863 69.9625 512.155 80.8143 521.729 92C536.225 108.936 549.909 126.407 560.694 146C566.432 156.423 571.893 166.971 576.397 178C578.358 182.804 579.612 189.997 584 193C582.964 200.135 588.552 208.937 590.37 216C594.782 233.136 598.998 251.237 599 269C601.903 262.081 600 251.48 600 244L600 190L600 0L0 0z"/>
<path style="fill:#000000; stroke:none;" d="M364 0L365 1L364 0M369 1L370 2L369 1z"/>
<path style="fill:#050505; stroke:none;" d="M217.667 4.33331C217.222 4.77777 218.278 4.72229 218.333 4.66669C218.778 4.22211 217.722 4.27771 217.667 4.33331z"/>
<path style="fill:#c06c84; stroke:none;" d="M150 343L300 343L300 123C300 105.838 302.21 86.9583 299.561 70C296.778 52.1841 287.695 36.022 274 24.3002C233.53 -10.34 168.001 9.07251 152.721 60C149.098 72.0778 150 84.5403 150 97L150 153L150 343z"/>
<path style="fill:#f67290; stroke:none;" d="M300 343L450 343L450 123C450 105.838 452.21 86.9583 449.561 70C446.778 52.1841 437.695 36.022 424 24.3002C383.53 -10.34 318.001 9.07251 302.721 60C299.098 72.0779 300 84.5403 300 97L300 153L300 343z"/>
<path style="fill:#010101; stroke:none;" d="M191 13L192 14L191 13M189 14L190 15L189 14z"/>
<path style="fill:#030303; stroke:none;" d="M412 14L413 15L412 14z"/>
<path style="fill:#000000; stroke:none;" d="M186 15L187 16L186 15z"/>
<path style="fill:#050505; stroke:none;" d="M183.667 16.3333C183.222 16.7778 184.278 16.7223 184.333 16.6667C184.778 16.2221 183.722 16.2777 183.667 16.3333z"/>
<path style="fill:#000000; stroke:none;" d="M181.667 17.3333C181.222 17.7778 182.278 17.7222 182.333 17.6667C182.778 17.222 181.722 17.2778 181.667 17.3333z"/>
<path style="fill:#111111; stroke:none;" d="M426 20L427 21L426 20z"/>
<path style="fill:#121212; stroke:none;" d="M428 21L429 22L428 21z"/>
<path style="fill:#151515; stroke:none;" d="M440 27L441 28L440 27z"/>
<path style="fill:#0d0d0d; stroke:none;" d="M442 28L443 29L442 28z"/>
<path style="fill:#060606; stroke:none;" d="M449 32L450 33L449 32z"/>
<path style="fill:#020202; stroke:none;" d="M451 33L452 34L451 33z"/>
<path style="fill:#060606; stroke:none;" d="M456 36L457 37L456 36M459 38L460 39L459 38z"/>
<path style="fill:#151515; stroke:none;" d="M474 48L475 49L474 48z"/>
<path style="fill:#161616; stroke:none;" d="M486 57L487 58L486 57z"/>
<path style="fill:#0e0e0e; stroke:none;" d="M491 61L492 62L491 61z"/>
<path style="fill:#6c5b7b; stroke:none;" d="M150 343L150 138L150 88C150 83.2489 151.902 73.6339 147.682 70.3634C142.378 66.2519 133.487 65.081 127 65.0038C121.238 64.9353 115.606 64.9769 110 66.4892C93.4763 70.9465 82.5834 84.5516 71.8696 97C39.6146 134.477 17.2276 179.773 6.57562 228C3.13842 243.562 0.0778107 260.025 0.000771605 276C-0.0782744 292.391 -0.108979 308.675 1.08873 325C1.37644 328.921 1.32042 339.392 4.60262 341.972C7.06464 343.907 12.0797 343 15 343L43 343L150 343z"/>
<path style="fill:#2d5170; stroke:none;" d="M450 70L450 341C450 361.903 452.261 384.259 449.714 405C446.99 427.182 436.272 449.421 419.961 464.83C404.07 479.842 383.774 490.04 362 492.714C342.548 495.103 321.603 493 302 493L76 493C83.1146 503.1 93.6389 512.244 103 520.271C124.986 539.122 149.491 555.14 176 566.86C208.629 581.287 243.351 590.469 279 592.911C374.898 599.478 470.056 558.937 531.565 485C553.366 458.794 570.164 428.882 582.05 397C592.435 369.144 599.988 337.866 600 308C600.006 291.676 600.661 275.224 598.714 259C592.638 208.359 573.069 159.487 543.421 118C537.192 109.284 530.365 101.15 523.421 93C511.934 79.5166 500.673 66.978 482 65.1697C470.381 64.0446 460.97 67.0057 450 70z"/>
<path style="fill:#121212; stroke:none;" d="M498 67L499 68L498 67z"/>
<path style="fill:#010101; stroke:none;" d="M500 70L501 71L500 70z"/>
<path style="fill:#040405; stroke:none;" d="M525 94L526 95L525 94z"/>
<path style="fill:#111115; stroke:none;" d="M531 101L532 102L531 101z"/>
<path style="fill:#0c0c11; stroke:none;" d="M556 136L557 137L556 136z"/>
<path style="fill:#050507; stroke:none;" d="M559 141L560 142L559 141z"/>
<path style="fill:#000000; stroke:none;" d="M564 150L565 151L564 150z"/>
<path style="fill:#08080c; stroke:none;" d="M583 193L584 194L583 193z"/>
<path style="fill:#ffffff; stroke:none;" d="M0 317L0 593L276 593C268.679 589.928 257.986 590.554 250 589.246C233.816 586.596 217.413 582.578 202 576.947C126.993 549.543 64.2319 495.28 29.2585 423C18.3074 400.367 10.799 376.505 5.42438 352C3.6181 343.764 2.56217 335.348 1.42515 327C0.96408 323.615 1.32177 320.15 0 317M599 317C598.997 343.445 591.227 371.386 582.05 396C552.424 475.466 489.957 540.513 411 572C384.042 582.751 353.263 591.997 324 592C330.919 594.903 341.52 593 349 593L405 593L600 593L600 398L600 342C600 334.52 601.903 323.919 599 317z"/>
<path style="fill:#eeb68b; stroke:none;" d="M4 343C4.53232 355.366 8.7418 368.207 12.2801 380C20.8147 408.446 33.5301 435.298 50 460C55.0344 467.551 60.3444 474.902 66.0039 482C68.6385 485.304 71.5398 489.845 75.2855 491.972C78.3108 493.69 82.657 493 86 493L111 493L203 493L305 493C325.794 493 348.526 495.561 369 491.739C405.241 484.974 435.086 458.14 445.975 423C453.735 397.954 450 368.955 450 343L4 343z"/>
</svg>
